<?xml version="1.0" encoding="UTF-8"?>
<!-- Created with Inkscape (http://www.inkscape.org/) -->
<svg width="" height="" version="1.1" viewBox="0 0 111.12 169.33" xmlns="http://www.w3.org/2000/svg">
 <g transform="translate(7.9375 .37011)">
  <g>
   <g stroke-width=".26458">
    <rect x="-7.9375" y="-.37011" width="111.12" height="42.333" fill="#393792"/>
    <rect x="-468.37" y="32.712" width="111.12" height="169.33" fill="#393792" fill-rule="evenodd"/>
    <rect x="-7.9375" y="84.3" width="111.12" height="42.333" fill="#7ee2be"/>
    <rect x="-7.9375" y="126.64" width="111.12" height="42.333" fill="#fff"/>
    <path d="m135.02-25.344v42.333h111.12v-42.333h-41.27l-13.206 41.181-13.772-41.181z" fill="#800080"/>
   </g>
   <path d="m231.22 192.65-6.7793-20.084h13.198c7.2591 0 13.198 0.12934 13.198 0.28742-5.3e-4 0.33221-12.583 39.634-12.736 39.782-0.0559 0.0541-3.1524-8.9395-6.881-19.986z" fill="#393792" stroke-width=".38322"/>
   <path d="m-123.47 206.39v42.333h42.876l-14.158-42.333zm83.431 0-13.576 42.333h41.27v-42.333z" fill="#7ee2be" stroke-width=".26458"/>
   <path d="m164.03 184.4c-0.46041-0.81423-13.733-41.174-13.588-41.319 0.0936-0.0936 12.234-0.12597 26.978-0.0718l26.808 0.0984-4.6749 14.563c-2.5712 8.0094-5.5676 17.365-6.6586 20.79l-1.9837 6.2274h-13.359c-7.3473 0-13.432-0.12934-13.521-0.28742z" fill="#e27ebb" stroke-width=".38322"/>
   <path d="m113.07 67.817v42.333h28.315l-0.0708-0.21239-14.086-42.121zm97.08 0-13.433 41.888-0.14262 0.44545h27.621v-42.333z" fill="#e27ebb" stroke-width=".26458"/>
   <path d="m146.99 88.869c-3.812-11.436-6.9308-20.922-6.9308-21.08s18.466-0.28739 41.036-0.28739h41.036l-0.23618 1.0539c-0.12989 0.57963-3.1215 10.021-6.6481 20.982l-6.4119 19.928-54.913 0.1966z" fill="#393792" stroke-width=".38322"/>
  </g>
  <g fill-opacity="0" stroke-width=".38322">
   <path d="m6.438 41.016c-1.2606-3.5013-13.423-39.931-13.423-40.206 0-0.17622 24.574-0.3204 54.61-0.3204 38.691 0 54.61 0.12009 54.61 0.41197 0 0.22659-2.9615 9.6252-6.5811 20.886l-6.5811 20.474h-82.186z"/>
   <path d="m6.438 41.016c-1.2606-3.5013-13.423-39.931-13.423-40.206 0-0.17622 24.574-0.3204 54.61-0.3204 38.691 0 54.61 0.12009 54.61 0.41197 0 0.22659-2.9615 9.6252-6.5811 20.886l-6.5811 20.474h-82.186z"/>
   <path d="m6.438 41.016c-1.2606-3.5013-13.423-39.931-13.423-40.206 0-0.17622 24.574-0.3204 54.61-0.3204 38.691 0 54.61 0.12009 54.61 0.41197 0 0.22659-2.9615 9.6252-6.5811 20.886l-6.5811 20.474h-82.186z"/>
   <path d="m6.438 41.016c-1.2606-3.5013-13.423-39.931-13.423-40.206 0-0.17622 24.574-0.3204 54.61-0.3204 38.691 0 54.61 0.12009 54.61 0.41197 0 0.22659-2.9615 9.6252-6.5811 20.886l-6.5811 20.474h-82.186z"/>
   <path d="m6.438 41.016c-1.2606-3.5013-13.423-39.931-13.423-40.206 0-0.17622 24.574-0.3204 54.61-0.3204 38.691 0 54.61 0.12009 54.61 0.41197 0 0.22659-2.9615 9.6252-6.5811 20.886l-6.5811 20.474h-82.186z"/>
   <path d="m6.2473 40.441c-2.0069-5.7422-13.232-39.361-13.232-39.63 0-0.17668 24.574-0.32124 54.61-0.32124 38.691 0 54.61 0.12009 54.61 0.41197 0 0.22659-2.9615 9.6252-6.5811 20.886l-6.5811 20.474h-82.189z"/>
   <path d="m6.2473 40.441c-2.0069-5.7422-13.232-39.361-13.232-39.63 0-0.17668 24.574-0.32124 54.61-0.32124 38.691 0 54.61 0.12009 54.61 0.41197 0 0.22659-2.9615 9.6252-6.5811 20.886l-6.5811 20.474h-82.189z"/>
  </g>
  <g stroke-width=".26458">
   <path d="m148.08 5.9778 14.158 42.333h82.445l13.576-42.333z" fill="#7ee2be"/>
   <rect x="-7.9375" y="41.965" width="111.12" height="42.333" fill="#e27ebb"/>
   <path d="m37.865-0.37011-37.826 0.18552 12.12 42.148h71.38l11.673-42.333z" fill="#7ee2be"/>
   <path d="m36.284 126.64 12.092 42.052 11.595-42.052z" fill="#393792"/>
   <path d="m24.142 84.31 12.173 42.333h23.687l11.673-42.333z" fill="#e27ebb"/>
   <path d="m11.935 41.876 12.159 42.285 0.01394 0.04806h47.534l0.07752-0.28112 11.595-42.052z" fill="#393792"/>
  </g>
 </g>
 <g transform="translate(7.9375 .37011)" fill="#ff8080">
  <path transform="matrix(-.0025346 -.62988 .35737 .0011589 -115.01 32.391)" d="m60.165 154.66-269.18-153.9 267.87-156.17 0.65553 155.03z"/>
  <path transform="matrix(-.0021787 -.62973 .3072 .0011586 243.98 -4.4483)" d="m60.165 154.66-269.18-153.9 267.87-156.17 0.65553 155.03z"/>
 </g>
</svg>
