<?xml version="1.0" encoding="UTF-8"?>
<!-- Created with Inkscape (http://www.inkscape.org/) -->
<svg width="1200" height="640" version="1.1" viewBox="0 0 317.5 169.33" xmlns="http://www.w3.org/2000/svg">
 <g transform="translate(7.9375 .37011)">
  <g>
   <rect x="-468.37" y="32.712" width="111.12" height="169.33" fill="#393792" fill-rule="evenodd" stroke-width=".26458"/>
   <path d="m240.23 213.94v42.333h111.12v-42.333h-41.27l-13.206 41.181-13.772-41.181z" fill="#800080" stroke-width=".26458"/>
   <path d="m219.6 224.53-6.7793-20.084h13.198c7.2591 0 13.198 0.12934 13.198 0.28742-5.3e-4 0.33221-12.583 39.634-12.736 39.782-0.0559 0.0541-3.1524-8.9395-6.881-19.986z" fill="#393792" stroke-width=".38322"/>
   <path d="m158.75 237.75c-0.46041-0.81423-13.733-41.174-13.588-41.319 0.0936-0.0936 12.234-0.12597 26.978-0.0718l26.808 0.0984-4.6749 14.563c-2.5712 8.0094-5.5676 17.365-6.6586 20.79l-1.9837 6.2274h-13.359c-7.3473 0-13.432-0.12934-13.521-0.28742z" fill="#e27ebb" stroke-width=".38322"/>
   <path d="m-51.199 179.55v42.333h28.315l-0.0708-0.21239-14.086-42.121zm97.08 0-13.433 41.888-0.14262 0.44545h27.621v-42.333z" fill="#e27ebb" stroke-width=".26458"/>
   <path d="m88.901 290.87c-3.812-11.436-6.9308-20.922-6.9308-21.08s18.466-0.28739 41.036-0.28739h41.036l-0.23618 1.0539c-0.12989 0.57963-3.1215 10.021-6.6481 20.982l-6.4119 19.928-54.913 0.1966z" fill="#393792" stroke-width=".38322"/>
   <path d="m83.738 240.4 14.158 42.333h82.445l13.576-42.333z" fill="#7ee2be" stroke-width=".26458"/>
  </g>
  <g transform="translate(-177.38 214.66)">
   <g stroke-width=".26458">
    <rect x="-7.9375" y="-.37011" width="111.12" height="42.333" fill="#393792"/>
    <rect x="-7.9375" y="84.3" width="111.12" height="42.333" fill="#7ee2be"/>
    <rect x="-7.9375" y="126.64" width="111.12" height="42.333" fill="#fff"/>
    <path d="m-123.47 206.39v42.333h42.876l-14.158-42.333zm83.431 0-13.576 42.333h41.27v-42.333z" fill="#7ee2be"/>
   </g>
   <g fill-opacity="0" stroke-width=".38322">
    <path d="m6.438 41.016c-1.2606-3.5013-13.423-39.931-13.423-40.206 0-0.17622 24.574-0.3204 54.61-0.3204 38.691 0 54.61 0.12009 54.61 0.41197 0 0.22659-2.9615 9.6252-6.5811 20.886l-6.5811 20.474h-82.186z"/>
    <path d="m6.438 41.016c-1.2606-3.5013-13.423-39.931-13.423-40.206 0-0.17622 24.574-0.3204 54.61-0.3204 38.691 0 54.61 0.12009 54.61 0.41197 0 0.22659-2.9615 9.6252-6.5811 20.886l-6.5811 20.474h-82.186z"/>
    <path d="m6.438 41.016c-1.2606-3.5013-13.423-39.931-13.423-40.206 0-0.17622 24.574-0.3204 54.61-0.3204 38.691 0 54.61 0.12009 54.61 0.41197 0 0.22659-2.9615 9.6252-6.5811 20.886l-6.5811 20.474h-82.186z"/>
    <path d="m6.438 41.016c-1.2606-3.5013-13.423-39.931-13.423-40.206 0-0.17622 24.574-0.3204 54.61-0.3204 38.691 0 54.61 0.12009 54.61 0.41197 0 0.22659-2.9615 9.6252-6.5811 20.886l-6.5811 20.474h-82.186z"/>
    <path d="m6.438 41.016c-1.2606-3.5013-13.423-39.931-13.423-40.206 0-0.17622 24.574-0.3204 54.61-0.3204 38.691 0 54.61 0.12009 54.61 0.41197 0 0.22659-2.9615 9.6252-6.5811 20.886l-6.5811 20.474h-82.186z"/>
    <path d="m6.2473 40.441c-2.0069-5.7422-13.232-39.361-13.232-39.63 0-0.17668 24.574-0.32124 54.61-0.32124 38.691 0 54.61 0.12009 54.61 0.41197 0 0.22659-2.9615 9.6252-6.5811 20.886l-6.5811 20.474h-82.189z"/>
    <path d="m6.2473 40.441c-2.0069-5.7422-13.232-39.361-13.232-39.63 0-0.17668 24.574-0.32124 54.61-0.32124 38.691 0 54.61 0.12009 54.61 0.41197 0 0.22659-2.9615 9.6252-6.5811 20.886l-6.5811 20.474h-82.189z"/>
   </g>
   <g stroke-width=".26458">
    <rect x="-7.9375" y="41.965" width="111.12" height="42.333" fill="#e27ebb"/>
    <path d="m37.865-0.37011-37.826 0.18552 12.12 42.148h71.38l11.673-42.333z" fill="#7ee2be"/>
    <path d="m36.284 126.64 12.092 42.052 11.595-42.052z" fill="#393792"/>
    <path d="m24.142 84.31 12.173 42.333h23.687l11.673-42.333z" fill="#e27ebb"/>
    <path d="m11.935 41.876 12.159 42.285 0.01394 0.04806h47.534l0.07752-0.28112 11.595-42.052z" fill="#393792"/>
   </g>
  </g>
 </g>
 <g transform="translate(7.9375 .37011)">
  <g transform="matrix(2.8571 0 0 1 14.741 -5.0862e-6)" stroke-width=".25334">
   <rect x="-7.9375" y="-.3701" width="111.12" height="42.333" fill="#7ee2be"/>
   <rect x="-7.9375" y="41.963" width="111.12" height="42.333" fill="#393792"/>
   <rect x="-7.9375" y="126.63" width="111.12" height="42.333" fill="#393792"/>
   <rect x="-7.9375" y="84.297" width="111.12" height="42.333" fill="#e27ebb"/>
  </g>
  <g>
   <path transform="matrix(.26458 0 0 .26458 -7.9375 -.37011)" d="m0 160v160h510l-45-160h-465zm735 0-45 160h510v-160h-465z" fill="#e27ebb" stroke-width="1.6185"/>
   <path transform="matrix(.26458 0 0 .26458 -7.9375 -.37011)" d="m0 0v160h465l-45-160h-420zm780 0-45 160h465v-160h-420z" fill="#393792" stroke-width="1.6185"/>
   <path d="m-7.9375 84.297v42.333h146.84l-11.906-42.333zm182.56 0-11.906 42.333h146.84v-42.333z" fill="#7ee2be" stroke-width=".42822"/>
   <path transform="matrix(-.0021787 -.62973 .3072 .0011586 -220.25 60.678)" d="m60.165 154.66-269.18-153.9 267.87-156.17 0.65553 155.03z" fill="#ff8080"/>
   <path transform="matrix(-.0021787 -.62973 .3072 .0011586 164.29 288.23)" d="m60.165 154.66-269.18-153.9 267.87-156.17 0.65553 155.03z" fill="#ff8080"/>
  </g>
  <path transform="matrix(-.1845 0 0 -.3783 -264.75 50.552)" d="m-153.98 167.83-516.25-1.0468 259.03-446.57 128.61 223.81z" fill="#6f0"/>
  <path transform="matrix(.26458 0 0 .26458 -7.9375 -.37011)" d="m0 480v160h600l-45-160h-555zm600 160h600v-160h-555l-45 160z" fill="#fff" stroke-width="1.6185"/>
  <rect x="-34.396" y="211.3" width="111.12" height="42.333" fill="#7ee2be" stroke-width=".25334"/>
  <path transform="matrix(-.1845 0 0 -.3783 -142.18 -.7738)" d="m-153.98 167.83-516.25-1.0468 259.03-446.57 128.61 223.81z" fill="#6f0"/>
  <path transform="matrix(.54993 0 0 1.1289 -45.341 -297.23)" d="m-110 420-86.603-150h86.603 86.603l-43.301 75z" fill="#abc837"/>
  <path transform="matrix(.54993 0 0 1.1289 -32.112 -291.94)" d="m-110 420-86.603-150h86.603 86.603l-43.301 75z" fill="#abc837"/>
 </g>
</svg>
