<svg width="" height="" viewBox="0 0 315 279" fill="none" xmlns="http://www.w3.org/2000/svg">
<path d="M13.3219 79.4801L128.466 35.9468L248.276 13.4206L280.551 89.9305L287.087 171.451L265.151 182.131L267.115 215.697L229.118 192.683L179.767 207.135L56.1367 231.129L18.8466 160.63L13.3219 79.4801Z" fill="#393792" stroke="#E27EBB" stroke-width="12"/>
<g filter="url(#filter0_d_115_1622)">
<path d="M83.3491 111C82.9437 111 82.6144 110.886 82.3611 110.658C82.1331 110.43 81.9937 110.151 81.9431 109.822L77.6111 85.464C77.5857 85.4133 77.5731 85.3627 77.5731 85.312C77.5731 85.2613 77.5731 85.2233 77.5731 85.198C77.5731 84.9953 77.6491 84.818 77.8011 84.666C77.9531 84.4887 78.1431 84.4 78.3711 84.4L82.3611 84.4C83.0197 84.4 83.3871 84.666 83.4631 85.198L86.3131 101.272L89.3911 91.278C89.4671 91.0753 89.5937 90.86 89.7711 90.632C89.9484 90.404 90.2397 90.29 90.6451 90.29L93.0391 90.29C93.4444 90.29 93.7357 90.404 93.9131 90.632C94.0904 90.86 94.2044 91.0753 94.2551 91.278L97.3711 101.234L100.183 85.198C100.259 84.666 100.639 84.4 101.323 84.4L105.313 84.4C105.541 84.4 105.731 84.4887 105.883 84.666C106.035 84.818 106.111 84.9953 106.111 85.198C106.111 85.2233 106.111 85.2613 106.111 85.312C106.111 85.3627 106.098 85.4133 106.073 85.464L101.741 109.822C101.69 110.151 101.538 110.43 101.285 110.658C101.057 110.886 100.74 111 100.335 111L97.2571 111C96.8517 111 96.5351 110.899 96.3071 110.696C96.1044 110.468 95.9651 110.24 95.8891 110.012L91.8231 98.232L87.7951 110.012C87.7191 110.24 87.5671 110.468 87.3391 110.696C87.1364 110.899 86.8197 111 86.3891 111L83.3491 111ZM115.266 111C115.038 111 114.848 110.924 114.696 110.772C114.544 110.595 114.468 110.405 114.468 110.202C114.468 110.075 114.481 109.961 114.506 109.86L123.55 85.426C123.626 85.1473 123.778 84.9067 124.006 84.704C124.234 84.5013 124.551 84.4 124.956 84.4L129.82 84.4C130.225 84.4 130.542 84.5013 130.77 84.704C130.998 84.9067 131.15 85.1473 131.226 85.426L140.27 109.86C140.295 109.961 140.308 110.075 140.308 110.202C140.308 110.405 140.232 110.595 140.08 110.772C139.928 110.924 139.738 111 139.51 111L135.558 111C135.178 111 134.899 110.911 134.722 110.734C134.545 110.557 134.431 110.392 134.38 110.24L132.746 105.984L122.03 105.984L120.396 110.24C120.345 110.392 120.231 110.557 120.054 110.734C119.877 110.911 119.598 111 119.218 111L115.266 111ZM123.436 101.082L131.302 101.082L127.388 90.138L123.436 101.082ZM155.236 111C154.957 111 154.729 110.911 154.552 110.734C154.375 110.557 154.286 110.329 154.286 110.05L154.286 89.682L147.37 89.682C147.117 89.682 146.901 89.5933 146.724 89.416C146.547 89.2387 146.458 89.0233 146.458 88.77L146.458 85.35C146.458 85.0713 146.547 84.8433 146.724 84.666C146.901 84.4887 147.117 84.4 147.37 84.4L167.282 84.4C167.561 84.4 167.789 84.4887 167.966 84.666C168.143 84.8433 168.232 85.0713 168.232 85.35L168.232 88.77C168.232 89.0233 168.143 89.2387 167.966 89.416C167.789 89.5933 167.561 89.682 167.282 89.682L160.404 89.682L160.404 110.05C160.404 110.329 160.315 110.557 160.138 110.734C159.961 110.911 159.733 111 159.454 111L155.236 111ZM189.606 111.38C187.224 111.38 185.198 110.987 183.526 110.202C181.879 109.391 180.6 108.226 179.688 106.706C178.776 105.161 178.269 103.286 178.168 101.082C178.142 100.043 178.13 98.9287 178.13 97.738C178.13 96.5473 178.142 95.4073 178.168 94.318C178.269 92.1393 178.776 90.29 179.688 88.77C180.625 87.2247 181.93 86.0467 183.602 85.236C185.274 84.4253 187.275 84.02 189.606 84.02C191.303 84.02 192.848 84.2353 194.242 84.666C195.635 85.0967 196.838 85.7173 197.852 86.528C198.865 87.3387 199.65 88.2887 200.208 89.378C200.765 90.4673 201.069 91.6833 201.12 93.026C201.12 93.254 201.031 93.444 200.854 93.596C200.702 93.748 200.512 93.824 200.284 93.824L195.952 93.824C195.648 93.824 195.407 93.748 195.23 93.596C195.052 93.444 194.913 93.1907 194.812 92.836C194.432 91.3413 193.798 90.3153 192.912 89.758C192.025 89.2007 190.923 88.922 189.606 88.922C188.035 88.922 186.794 89.3527 185.882 90.214C184.97 91.0753 184.476 92.5067 184.4 94.508C184.324 96.5853 184.324 98.7133 184.4 100.892C184.476 102.893 184.97 104.325 185.882 105.186C186.794 106.047 188.035 106.478 189.606 106.478C190.923 106.478 192.025 106.199 192.912 105.642C193.824 105.059 194.457 104.033 194.812 102.564C194.913 102.184 195.052 101.931 195.23 101.804C195.407 101.652 195.648 101.576 195.952 101.576L200.284 101.576C200.512 101.576 200.702 101.652 200.854 101.804C201.031 101.956 201.12 102.146 201.12 102.374C201.069 103.717 200.765 104.933 200.208 106.022C199.65 107.111 198.865 108.061 197.852 108.872C196.838 109.683 195.635 110.303 194.242 110.734C192.848 111.165 191.303 111.38 189.606 111.38ZM213.939 111C213.661 111 213.433 110.911 213.255 110.734C213.078 110.557 212.989 110.329 212.989 110.05L212.989 85.35C212.989 85.0713 213.078 84.8433 213.255 84.666C213.433 84.4887 213.661 84.4 213.939 84.4L218.081 84.4C218.36 84.4 218.588 84.4887 218.765 84.666C218.943 84.8433 219.031 85.0713 219.031 85.35L219.031 94.85L229.329 94.85L229.329 85.35C229.329 85.0713 229.418 84.8433 229.595 84.666C229.773 84.4887 230.001 84.4 230.279 84.4L234.421 84.4C234.7 84.4 234.928 84.4887 235.105 84.666C235.283 84.8433 235.371 85.0713 235.371 85.35L235.371 110.05C235.371 110.329 235.283 110.557 235.105 110.734C234.928 110.911 234.7 111 234.421 111L230.279 111C230.001 111 229.773 110.911 229.595 110.734C229.418 110.557 229.329 110.329 229.329 110.05L229.329 100.246L219.031 100.246L219.031 110.05C219.031 110.329 218.943 110.557 218.765 110.734C218.588 110.911 218.36 111 218.081 111L213.939 111ZM64.6025 156.38C62.3731 156.38 60.4225 156.013 58.7505 155.278C57.0785 154.518 55.7865 153.365 54.8745 151.82C53.9625 150.249 53.5065 148.261 53.5065 145.854L53.5065 130.35C53.5065 130.071 53.5951 129.843 53.7725 129.666C53.9498 129.489 54.1778 129.4 54.4565 129.4L58.5985 129.4C58.8771 129.4 59.1051 129.489 59.2825 129.666C59.4598 129.843 59.5485 130.071 59.5485 130.35L59.5485 145.816C59.5485 147.691 59.9918 149.084 60.8785 149.996C61.7651 150.908 63.0065 151.364 64.6025 151.364C66.1731 151.364 67.4018 150.908 68.2885 149.996C69.1751 149.084 69.6185 147.691 69.6185 145.816L69.6185 130.35C69.6185 130.071 69.7071 129.843 69.8845 129.666C70.0871 129.489 70.3151 129.4 70.5685 129.4L74.7485 129.4C75.0018 129.4 75.2171 129.489 75.3945 129.666C75.5718 129.843 75.6605 130.071 75.6605 130.35L75.6605 145.854C75.6605 148.261 75.2045 150.249 74.2925 151.82C73.3805 153.365 72.1011 154.518 70.4545 155.278C68.8078 156.013 66.8571 156.38 64.6025 156.38ZM98.223 156.38C95.791 156.38 93.7516 156.025 92.105 155.316C90.4836 154.607 89.255 153.682 88.419 152.542C87.583 151.402 87.1396 150.186 87.089 148.894C87.089 148.691 87.165 148.514 87.317 148.362C87.469 148.185 87.659 148.096 87.887 148.096L91.953 148.096C92.2823 148.096 92.5356 148.172 92.713 148.324C92.8903 148.451 93.055 148.615 93.207 148.818C93.3843 149.249 93.663 149.667 94.043 150.072C94.4483 150.477 94.993 150.819 95.677 151.098C96.361 151.351 97.2096 151.478 98.223 151.478C99.8696 151.478 101.098 151.212 101.909 150.68C102.745 150.148 103.163 149.426 103.163 148.514C103.163 147.855 102.935 147.323 102.479 146.918C102.048 146.513 101.352 146.145 100.389 145.816C99.4516 145.487 98.1976 145.132 96.627 144.752C94.727 144.347 93.1056 143.827 91.763 143.194C90.4456 142.535 89.445 141.699 88.761 140.686C88.1023 139.647 87.773 138.368 87.773 136.848C87.773 135.328 88.191 133.985 89.027 132.82C89.863 131.629 91.041 130.705 92.561 130.046C94.081 129.362 95.8923 129.02 97.995 129.02C99.6923 129.02 101.187 129.248 102.479 129.704C103.796 130.16 104.886 130.755 105.747 131.49C106.634 132.225 107.305 133.01 107.761 133.846C108.217 134.682 108.458 135.493 108.483 136.278C108.483 136.481 108.407 136.671 108.255 136.848C108.103 137 107.913 137.076 107.685 137.076L103.429 137.076C103.176 137.076 102.948 137.025 102.745 136.924C102.542 136.823 102.378 136.645 102.251 136.392C102.099 135.733 101.643 135.163 100.883 134.682C100.148 134.175 99.1856 133.922 97.995 133.922C96.7536 133.922 95.7656 134.15 95.031 134.606C94.3216 135.062 93.967 135.759 93.967 136.696C93.967 137.304 94.1443 137.823 94.499 138.254C94.879 138.659 95.4996 139.027 96.361 139.356C97.2476 139.66 98.413 140.002 99.857 140.382C102.086 140.838 103.898 141.383 105.291 142.016C106.684 142.649 107.71 143.473 108.369 144.486C109.028 145.474 109.357 146.728 109.357 148.248C109.357 149.945 108.876 151.402 107.913 152.618C106.976 153.834 105.671 154.771 103.999 155.43C102.352 156.063 100.427 156.38 98.223 156.38ZM137.973 156C137.694 156 137.466 155.911 137.289 155.734C137.111 155.557 137.023 155.329 137.023 155.05L137.023 130.35C137.023 130.071 137.111 129.843 137.289 129.666C137.466 129.489 137.694 129.4 137.973 129.4L148.347 129.4C150.399 129.4 152.172 129.717 153.667 130.35C155.187 130.983 156.365 131.946 157.201 133.238C158.062 134.505 158.493 136.088 158.493 137.988C158.493 139.913 158.062 141.509 157.201 142.776C156.365 144.017 155.187 144.942 153.667 145.55C152.172 146.158 150.399 146.462 148.347 146.462L143.255 146.462L143.255 155.05C143.255 155.329 143.166 155.557 142.989 155.734C142.811 155.911 142.583 156 142.305 156L137.973 156ZM143.141 141.75L148.157 141.75C149.449 141.75 150.449 141.433 151.159 140.8C151.893 140.167 152.261 139.217 152.261 137.95C152.261 136.835 151.931 135.923 151.273 135.214C150.639 134.505 149.601 134.15 148.157 134.15L143.141 134.15L143.141 141.75ZM170.918 156C170.64 156 170.412 155.911 170.234 155.734C170.057 155.557 169.968 155.329 169.968 155.05L169.968 130.35C169.968 130.071 170.057 129.843 170.234 129.666C170.412 129.489 170.64 129.4 170.918 129.4L175.136 129.4C175.415 129.4 175.643 129.489 175.82 129.666C175.998 129.843 176.086 130.071 176.086 130.35L176.086 150.908L187.866 150.908C188.145 150.908 188.373 150.997 188.55 151.174C188.728 151.351 188.816 151.579 188.816 151.858L188.816 155.05C188.816 155.329 188.728 155.557 188.55 155.734C188.373 155.911 188.145 156 187.866 156L170.918 156ZM198.35 156C198.122 156 197.932 155.924 197.78 155.772C197.628 155.595 197.552 155.405 197.552 155.202C197.552 155.075 197.565 154.961 197.59 154.86L206.634 130.426C206.71 130.147 206.862 129.907 207.09 129.704C207.318 129.501 207.635 129.4 208.04 129.4L212.904 129.4C213.31 129.4 213.626 129.501 213.854 129.704C214.082 129.907 214.234 130.147 214.31 130.426L223.354 154.86C223.38 154.961 223.392 155.075 223.392 155.202C223.392 155.405 223.316 155.595 223.164 155.772C223.012 155.924 222.822 156 222.594 156L218.642 156C218.262 156 217.984 155.911 217.806 155.734C217.629 155.557 217.515 155.392 217.464 155.24L215.83 150.984L205.114 150.984L203.48 155.24C203.43 155.392 203.316 155.557 203.138 155.734C202.961 155.911 202.682 156 202.302 156L198.35 156ZM206.52 146.082L214.386 146.082L210.472 135.138L206.52 146.082ZM239.161 156C238.883 156 238.655 155.911 238.477 155.734C238.3 155.557 238.211 155.329 238.211 155.05L238.211 146.69L229.319 130.616C229.294 130.54 229.269 130.477 229.243 130.426C229.218 130.35 229.205 130.274 229.205 130.198C229.205 129.995 229.281 129.818 229.433 129.666C229.611 129.489 229.801 129.4 230.003 129.4L234.031 129.4C234.386 129.4 234.665 129.489 234.867 129.666C235.07 129.843 235.209 130.008 235.285 130.16L241.251 140.61L247.217 130.16C247.293 130.008 247.433 129.843 247.635 129.666C247.838 129.489 248.117 129.4 248.471 129.4L252.499 129.4C252.702 129.4 252.879 129.489 253.031 129.666C253.209 129.818 253.297 129.995 253.297 130.198C253.297 130.274 253.285 130.35 253.259 130.426C253.234 130.477 253.209 130.54 253.183 130.616L244.291 146.69L244.291 155.05C244.291 155.329 244.203 155.557 244.025 155.734C243.848 155.911 243.62 156 243.341 156L239.161 156ZM263.546 142.7C263.267 142.7 263.039 142.611 262.862 142.434C262.684 142.257 262.596 142.029 262.596 141.75L262.596 137.684C262.596 137.405 262.684 137.177 262.862 137C263.039 136.823 263.267 136.734 263.546 136.734L267.802 136.734C268.08 136.734 268.308 136.823 268.486 137C268.663 137.177 268.752 137.405 268.752 137.684L268.752 141.75C268.752 142.029 268.663 142.257 268.486 142.434C268.308 142.611 268.08 142.7 267.802 142.7L263.546 142.7ZM263.546 156C263.267 156 263.039 155.911 262.862 155.734C262.684 155.557 262.596 155.329 262.596 155.05L262.596 150.984C262.596 150.705 262.684 150.477 262.862 150.3C263.039 150.123 263.267 150.034 263.546 150.034L267.802 150.034C268.08 150.034 268.308 150.123 268.486 150.3C268.663 150.477 268.752 150.705 268.752 150.984L268.752 155.05C268.752 155.329 268.663 155.557 268.486 155.734C268.308 155.911 268.08 156 267.802 156L263.546 156Z" fill="#E27EBB"/>
</g>
<defs>
<filter id="filter0_d_115_1622" x="49.5063" y="84.02" width="223.245" height="80.36" filterUnits="userSpaceOnUse" color-interpolation-filters="sRGB">
<feFlood flood-opacity="0" result="BackgroundImageFix"/>
<feColorMatrix in="SourceAlpha" type="matrix" values="0 0 0 0 0 0 0 0 0 0 0 0 0 0 0 0 0 0 127 0" result="hardAlpha"/>
<feOffset dy="4"/>
<feGaussianBlur stdDeviation="2"/>
<feComposite in2="hardAlpha" operator="out"/>
<feColorMatrix type="matrix" values="0 0 0 0 0 0 0 0 0 0 0 0 0 0 0 0 0 0 0.25 0"/>
<feBlend mode="normal" in2="BackgroundImageFix" result="effect1_dropShadow_115_1622"/>
<feBlend mode="normal" in="SourceGraphic" in2="effect1_dropShadow_115_1622" result="shape"/>
</filter>
</defs>
</svg>
