<?xml version="1.0" encoding="UTF-8"?>
<!-- Created with Inkscape (http://www.inkscape.org/) -->
<svg width="" height="" version="1.1" viewBox="0 0 757.33 754.67" xml:space="preserve" xmlns="http://www.w3.org/2000/svg" xmlns:xlink="http://www.w3.org/1999/xlink"><defs><clipPath id="clipPath138408"><use xlink:href="#g138404"/></clipPath></defs><g transform="matrix(1.3333 0 0 -1.3333 0 754.67)"><g transform="scale(.1)"><path d="m11.164 2919.4c76.945 74.81 154.44 153.44 235.31 254.89 5.371 6.74 3.824 7.45 1.527 15.8-59.82 217.17-76.871 415.14-59.734 592.75 25.121 260.35 145.26 481.74 312.3 663.72 134.78-50.04 269.48-68.34 373.07-14.31 5.082 126.98-8.742 251.65-86.887 374.01 155.1 137.86 324.88 216.17 613.68 211.41 230.97 284.69 484.42 502.4 766.68 523.76 133 10.06 273.09-25.68 426.61-128.49l267.34 231.77c13.92 12.07 31.55 8.94 39.47 0.88 77.2-78.54 161.55-167.08 247.47-228.39 8.18-5.82 7.65-6.09 16.78-2.16 177.36 76.4 339.29 102.21 490.96 76.84 270.62-45.29 510.09-235.09 718.01-514.31 256.96-21.75 437.06-121.23 569.18-295.89-33.34-114.05-66-229.48-73.83-339.03 114.22-35.75 245.15-58.01 334.17-26.73 137.82-198.5 241.37-401.2 270.57-627.57 21.3-165.18 14.96-322.15-60.04-529.29 80.91-76.38 161.83-154.26 242.74-238.2 21.67-22.48 16.54-39.81 0.89-57.07-58.86-64.87-180.68-189.28-227.48-245.2-8.41-10.03-8.38-9.42-4.54-21.77 151.62-488.28 98.02-908.6-177.88-1252.1-76.92 37.45-184.71 70.68-318.03 24.34-33.4-83.65 4.4-250.9 62.7-345.65-196.09-201.56-358.22-319.51-569.34-320.01-142.41-261.93-317.97-427.53-522.45-496.74-204.48-69.203-426.58-37.562-696.22 85.911-105.88-93.93-199.34-177.53-305.53-286.35-95.93 91.641-203.39 189.73-312.38 277.31-6.35 5.106-5.69 3.762-12.4-0.804-212.86-145.14-469.73-190.89-673.22-136.65-233.23 62.18-434.78 242.88-624.87 524.16-280.63 38.352-514.47 144.85-596.23 320.23 50.73 117.42 101.13 227.49 102.59 372.66-103.97 23.88-216.13 33.26-351.29 12.57-147.58 176.88-234.69 358.48-270.38 556.88-40.563 225.48-18.11 471.14 63.355 723.68-32.301 33.42-191.32 187.54-217.52 225.88-8.4531 12.38-4.2344 28.4 4.8555 37.23" fill="#393792" fill-rule="evenodd"/><g clip-path="url(#clipPath138408)"><g id="g138404"><path d="m518.8 4376c-147.93-170.55-248.23-370.57-270.28-599.07-18.503-191.75 6.856-385.77 57.848-570.87 7.442-27.07 5.711-46.68-12.562-69.59-68.621-86.09-142.37-164.21-220.45-241.01 6.1523-6.74 12.512-13.31 17.73-18.87 21.281-22.69 43.117-44.91 65.012-67 36.859-37.19 74.91-73.71 111.26-111.31l25.235-26.11-11.149-34.55c-71.855-222.75-103.11-462.46-61.386-694.38 34.179-190.02 117.12-353.68 236.23-503.03 114.9 13.84 225.22 8.09 339.41-18.13l47.469-10.91-0.484-48.71c-1.403-139.84-43.684-247.49-96.149-369.63 98.032-168.64 361.47-238.62 537.46-262.67l26.81-3.668 15.15-22.414c142.32-210.59 335.06-431.51 590.31-499.56 209.03-55.722 448.2 8.633 623.54 128.18 28.74 19.574 56.51 20.383 84.4-2.039 94.35-75.813 184.94-156.84 273.17-239.85 86.18 85.496 175.59 166.2 266.65 246.98l29.51 26.183 35.86-16.426c203.9-93.367 431.27-158.18 651.61-83.613 223.32 75.586 379.58 267.65 488.68 468.32l17.15 31.535 35.89 0.086c41.69 0.093 82.7 5.402 122.93 16.383 141.87 38.718 267.76 149.07 372.11 253.76-49.73 104.28-83.26 260.32-44.49 357.42l10.25 25.66 26.1 9.08c109.35 38 215.38 32.77 318.85-7.19 257.94 347.13 266.28 750.3 139.12 1159.8-10.1 32.53-5.89 52.52 15.94 78.59 38.13 45.57 81.11 89.72 122 132.92 31.78 33.58 63.91 67.04 95.2 101.11-74.26 76.47-150.97 150.39-228.49 223.56l-28.89 27.27 13.53 37.36c62.42 172.4 80.21 320.37 56.91 500.94-26.83 208.03-121.09 394.11-236.59 566.15-104.7-19-230.72 8.24-326.18 38.12l-45.72 14.31 3.42 47.78c7.75 108.48 37 216.98 67.38 321.75-130.63 159.37-299.18 230.9-507.46 248.53l-27.17 2.3-16.28 21.87c-166.32 223.35-394.06 443-679.44 490.75-156.31 26.15-313.49-10.9-457.04-72.74-28.75-12.36-50.58-9.53-75.86 8.5-84.64 60.38-160.19 137.88-233.36 212.64l-281.04-243.66-38.41 25.73c-117.03 78.36-245.59 129.23-388.37 118.42-294.15-22.25-549.43-286.08-724.23-501.53l-18.56-22.87-29.45 0.48c-214.27 3.53-375.22-36.41-534.92-164.4 59.504-113.79 74.843-232.32 69.613-362.91l-1.406-35.04-31.09-16.22c-118.09-61.58-259.48-42.73-382.82-2.48zm2361.5 102.24c912.59 0 1652.7-740.09 1652.7-1652.7s-740.09-1652.7-1652.7-1652.7-1652.7 740.09-1652.7 1652.7 740.08 1652.7 1652.7 1652.7zm0-60.54c879.17 0 1592.1-712.98 1592.1-1592.2s-712.97-1592.2-1592.1-1592.2c-879.18 0-1592.2 712.98-1592.2 1592.2s712.97 1592.2 1592.2 1592.2zm0 635.64c1230.2 0 2227.8-997.62 2227.8-2227.8s-997.63-2227.8-2227.8-2227.8c-1230.2 0-2227.8 997.62-2227.8 2227.8s997.63 2227.8 2227.8 2227.8zm0-60.53c1196.7 0 2167.2-970.52 2167.2-2167.3s-970.52-2167.3-2167.2-2167.3c-1196.8 0-2167.3 970.52-2167.3 2167.3s970.51 2167.3 2167.3 2167.3" fill="#e27ebb" fill-rule="evenodd"/></g></g><g fill="#393792"><path d="m1704.5 3725.9c-65.86-50.96-130.03-127.26-155.23-240.6 133.67-71.85 192.04-182.12 191.99-300.76l-0.31-626.57c-0.08-166.52-100.98-306.15-265.2-356.2l164.94-220.87c108.83 52.12 210.87 69.81 308.04 66.16 146.82-5.52 239.49-57.46 352.52-125.85-25.15-128.96-88.45-342.11-234.25-322.79 216.09-171.84 457.98-237.63 704.15-238.9-125.13 139.27-165.83 286.16-152.69 481.22 77.61-21.84 167.02-39.9 262.21-42.03 95.06-2.14 201.54 25.5 283.35 62.69 17.46-205.43-21.6-357.73-151.12-501.88 246.17 1.27 488.06 67.06 704.15 238.9-155.71-20.63-217.33 223.91-238.87 347.84 104.6 33.07 195.48 83.64 277.61 144.31 211.81 156.47 393.74 370.46 581.96 678.97-195.76 463.4-512.18 786.52-856.76 960.26 17.9 123.39 86.83 224.99 186.67 303.53-216.1 171.84-435.22 232.97-651.32 257.63 121.55-142.12 144.02-294.53 145.1-455.72-95.73 17.97-190.79 26.3-277.64 29.18-93.52 3.11-179.57-7.96-260.21-26.97 1.28 160.37 24.09 312.04 145.08 453.51-216.1-24.66-435.22-85.79-651.31-257.63 101.3-79.69 170.78-183.11 187.42-308.96-18.23-7.36-36.31-14.45-54.26-21.08-96.34-35.6-195.63-58.45-282.81-57.69-92.26 0.8-178.43 21.76-263.21 80.3zm921.68-767.3c105.76 8.71 187.91 54.13 264.3 130.71 69.77-62.8 144.02-108.78 266.4-110.87v581.14c-86.61 24.41-179.11 37.66-275.22 37.66-88.85 0-174.6-11.33-255.48-32.32zm530.7-235.32c-84.37-13.13-160.63-35.58-269.58-123.69-76.46 64.15-184.93 106.51-261.12 129.56v-615.03c80.88-21 166.63-32.33 255.48-32.33 96.11 0 188.61 13.25 275.22 37.66zm316.83 677.93v-1123.4c178.2 138.65 290.16 338.96 290.16 561.7 0 222.73-111.96 423.04-290.16 561.69zm-1164.4-1138.2v1153.1c-189.62-138.97-309.9-345.72-309.9-576.55 0-230.84 120.28-437.58 309.9-576.56" fill-rule="evenodd"/><path d="m1098.6 1788.1 32.46-49.78 115.34 75.19 93.14-142.87 45.33 29.55-93.14 142.88 77.31 50.39 105.01-161.09 45.32 29.55-137.46 210.86-283.31-184.68"/><path d="m1409.5 1375.2c14.28-15.2 29.75-27.3 46.35-36.48 16.72-9.19 33.93-15.38 51.82-18.73 17.83-3.31 35.65-3.75 53.44-1.47 17.75 2.34 34.96 7.38 51.41 15.13 16.51 7.79 31.8 18.2 45.81 31.16l0.71 0.65c13.96 13.13 25.4 27.54 34.27 43.42 8.93 15.8 15.09 32.45 18.66 49.87 3.52 17.49 4.25 35.13 2.19 53.03-2.05 17.9-7.02 35.39-15.02 52.6-7.95 17.13-19 33.36-33.17 48.67-14.28 15.19-29.69 27.36-46.35 36.48-16.72 9.19-33.93 15.37-51.76 18.67-17.84 3.3-35.71 3.82-53.45 1.47-17.8-2.28-34.89-7.32-51.46-15.06-16.5-7.8-31.74-18.16-45.81-31.16l-0.71-0.66c-13.9-13.08-25.4-27.54-34.21-43.36-8.88-15.87-15.15-32.51-18.73-49.94-3.51-17.48-4.24-35.11-2.19-53.02 2.05-17.9 7.08-35.46 15.03-52.6 7.95-17.13 19-33.36 33.17-48.67zm40.93 36.86c-11.41 12.36-19.6 25.86-24.62 40.34s-6.96 29.18-5.98 44.19c1.04 14.95 4.9 29.45 11.66 43.35 6.7 13.95 16.14 26.61 28.15 37.92l0.71 0.66c12.13 11.2 25.3 19.75 39.63 25.51 14.22 5.77 28.91 8.67 43.72 8.73 14.93 0.05 29.35-2.91 43.33-8.92 14.04-5.96 26.82-15.07 38.36-27.32 11.47-12.42 19.6-25.86 24.57-40.4 5.01-14.47 6.95-29.29 5.85-44.29-1.09-15-4.96-29.52-11.77-43.46-6.75-14.01-16.2-26.67-28.22-37.99l-0.7-0.66c-12.13-11.2-25.31-19.73-39.58-25.45-14.21-5.77-28.72-8.62-43.6-8.62-14.87 0.01-29.23 3.02-43.21 9.03-13.92 5.96-26.76 15.13-38.3 27.38"/><path d="m1746.6 1095.1c18.35-12.38 36.73-20.99 55.11-25.71 18.31-4.68 36.31-5.36 53.92-1.99 17.62 3.36 34.52 11 50.75 22.97 16.26 11.86 31.4 28.26 45.61 49.18l107.25 159.01-49.26 33.23-108.87-161.41c-11.69-17.18-24.24-29.6-37.64-37.37-13.42-7.65-27.35-10.88-41.7-9.56-14.47 1.31-28.95 6.91-43.57 16.77-14.76 9.95-25.3 21.53-31.86 34.7-6.46 13.19-8.49 27.58-6.2 43.22 2.29 15.65 9.28 32.2 20.93 49.6l107.52 159.41-49.27 33.24-108.87-161.42c-13.67-20.4-22.89-40.12-27.75-59.28-4.81-19.09-5.49-37.38-2.06-54.75 3.44-17.37 10.7-33.53 21.87-48.64 11.13-15.18 25.8-28.87 44.09-41.2"/><path d="m1987.1 957.1 54.27-21.707 89.36 223.39 83.8-292.65 46.2-18.481 125.59 314.01-54.28 21.71-86.84-217.12-81.37 284.4-51.14 20.45-125.59-314"/><path d="m2393.1 813.47 124.29-21.243c21.05-3.511 41.05-4.074 60.08-1.695 19.03 2.387 36.71 7.367 52.96 14.969 16.24 7.598 30.74 17.371 43.5 29.402 12.68 12.047 23.24 26.008 31.65 41.809 8.34 15.808 14.16 33.113 17.45 51.91l0.17 0.953c3.95 23.586 3.31 46.16-1.75 67.692-5.06 21.53-14.2 41.15-27.37 58.76-13.15 17.68-29.8 32.54-49.97 44.56-20.24 12.04-43.49 20.34-69.74 24.99l-124.29 21.25zm172.16 258.78c17.52-3.08 32.91-8.64 46.16-16.63 13.25-8.07 24.05-18 32.46-29.98 8.42-11.89 14.15-25.21 17.2-39.863 3.13-14.664 3.25-30.207 0.52-46.648l-0.16-0.957c-2.88-16.336-8.15-30.949-15.96-43.668-7.73-12.731-17.54-23.309-29.42-31.57-11.87-8.34-25.35-14.043-40.49-17.098-15.16-3.125-31.51-3.191-49.06-0.266l-65.72 11.231 38.74 226.68 65.73-11.23"/><path d="m2806.8 757.96 253.1 5.301-1.11 53.136-193.69-4.058-1.9 90.808 169.54 3.551-1.12 53.137-169.54-3.555-1.84 87.915 191.28 4-1.11 53.13-250.69-5.25 7.08-338.12"/><path d="m3173.7 775.12 123.39 26.004c20.86 4.48 39.66 11.32 56.48 20.543s31.42 20.367 43.73 33.406c12.31 13.051 22.19 27.477 29.63 43.36 7.35 15.863 12.02 32.734 14.03 50.523 1.94 17.77 0.97 36.004-2.88 54.683l-0.2 0.95c-5.01 23.39-13.91 44.14-26.54 62.3-12.63 18.15-28.35 33.02-47.08 44.56-18.74 11.6-39.7 19.28-62.87 23.03-23.25 3.75-47.93 2.9-74.04-2.43l-123.39-26zm64.81 303.98c17.42 3.59 33.78 4.08 49.05 1.53 15.28-2.62 28.98-7.88 41.21-15.92 12.21-7.96 22.43-18.23 30.66-30.73 8.32-12.49 14.15-26.89 17.67-43.187l0.19-0.945c3.35-16.246 3.82-31.782 1.24-46.477-2.5-14.683-7.73-28.129-15.72-40.183-7.98-12.125-18.41-22.391-31.37-30.801-12.94-8.489-28.11-14.567-45.51-18.317l-65.24-13.746-47.42 225.03 65.24 13.75"/><path d="m3908.1 1030.5 51 29.56-170.82 294.67-35.53-20.59-64.46-70.88 35.1-35.49 44.18 45.15 140.53-242.42"/><path d="m4150 1188.2c14.71 11.39 26.87 23.57 36.59 36.7 9.65 13.09 16.47 26.55 20.48 40.38 4 13.83 4.93 27.43 2.69 40.93-2.31 13.46-7.97 26.27-17.13 38.32l-0.58 0.77c-8.16 10.49-17.29 18.3-27.32 23.29-10.09 4.95-21.03 7.71-32.81 8.11-11.72 0.46-24.3-0.87-37.58-4.06 4.61 9.73 7.69 19.6 9.36 29.6 1.65 10.01 1.26 20.05-1.21 30.14-2.41 10.02-7.4 20.1-14.94 30.05l-0.58 0.77c-8.06 10.36-17.77 18.13-29.14 23.41-11.31 5.23-23.65 7.94-37.02 8.04-13.36 0.09-27.07-2.41-41.18-7.45-14.1-5.03-27.86-12.75-41.39-23.03-13.43-10.41-24.4-21.77-32.91-34.09-8.52-12.31-14.44-24.97-17.8-37.91-3.32-13-3.89-25.62-1.78-37.9 2.12-12.28 7.06-23.61 14.94-34.01l0.59-0.77c7.66-9.85 16.09-17.28 25.16-22.21 9.1-4.98 18.7-7.97 28.79-8.95 10.1-0.98 20.43-0.57 31.02 1.37-6.92-12.02-11.62-23.75-14.24-35.28-2.49-11.57-2.5-22.93-0.05-34.05 2.49-11.19 7.82-22.11 16-32.89l0.59-0.77c8.98-11.58 19.69-20.11 31.99-25.69 12.31-5.47 25.7-8.09 40.09-7.81 14.39 0.3 29.21 3.34 44.4 9.21 15.25 5.91 30.17 14.52 44.97 25.78zm-121.76 158.68c-9.32-7.04-18.88-11.64-28.58-13.81-9.82-2.15-19.02-1.8-27.78 1.02-8.65 2.8-16.05 8.08-22.14 15.89l-0.59 0.77c-5.18 6.88-8 14.67-8.31 23.26-0.35 8.66 1.84 17.44 6.45 26.26 4.6 8.81 11.65 16.96 21.24 24.42 9.69 7.34 19.39 12.04 29.16 14.25 9.75 2.1 18.73 1.9 27.02-0.68 8.32-2.65 15.15-7.45 20.55-14.37l0.6-0.76c5.86-7.78 9-16.24 9.42-25.25 0.41-9.13-1.69-18.04-6.24-26.92-4.67-8.86-11.59-16.9-20.8-24.08zm91.47-119.2c-11.88-9.01-23.37-14.78-34.42-17.58-11.17-2.78-21.27-2.83-30.34-0.14-9.02 2.62-16.39 7.73-22.08 15.02l-0.59 0.77c-6.2 8.34-9.26 17.36-9.07 27.15 0.2 9.8 3.27 19.55 9.1 29.41 5.83 9.75 14.07 18.71 24.75 27.01 7.99 6.13 16.13 10.85 24.43 14.18 8.31 3.33 16.36 5.14 24.22 5.49 7.85 0.34 15.1-0.9 21.73-3.72 6.7-2.78 12.37-7.26 17.14-13.35l0.59-0.76c5.67-7.53 8.63-16.01 8.81-25.51 0.19-9.5-2.59-19.25-8.21-29.24-5.63-10.01-14.3-19.6-26.06-28.73"/><path d="m4355.6 1450.4c-6.57-6.98-13.68-12.77-21.24-17.38-7.55-4.61-15.88-8.27-24.96-10.99-9.04-2.66-19.06-4.73-30.02-6.02l10.85-54.7c12.27 1.38 24.32 3.97 36.06 7.62 11.86 3.66 23.43 9.01 34.73 15.96 11.24 7 22.25 16.09 32.97 27.35 15.62 16.69 26.32 34.61 32.18 53.76 5.76 19.14 7.05 38.83 3.66 59.06-3.34 20.29-10.88 40.47-22.82 60.56-11.87 20.16-27.72 39.62-47.58 58.34l-0.7 0.66c-16.17 15.13-31.23 27.1-45.33 35.74-14.04 8.7-27.38 14.85-39.96 18.41s-24.7 5.13-36.43 4.79c-11.2-0.4-21.86-2.08-32.03-5.12-10.16-3.03-19.99-7.71-29.65-14.09-9.61-6.32-19.29-14.59-28.95-24.84-12.8-13.71-22.4-28.23-28.67-43.46-6.27-15.22-9.4-30.52-9.34-45.96 0.05-15.32 3.11-30.04 9.28-44.15 6.18-14.12 15.27-26.89 27.34-38.39l0.71-0.66c11.95-11.15 24.61-19.2 38.14-24.1 13.42-4.9 27.2-6.71 41.29-5.5 14.03 1.28 27.86 5.5 41.6 12.69 13.74 7.3 26.76 17.48 39.19 30.56 11.88 12.71 19.97 25.99 24.45 39.91 4.43 13.97 5.77 28.31 3.86 42.95 6.56-6.3 12.76-13.46 18.58-21.6 5.82-8.15 10.81-16.83 14.79-26.11s6.48-18.84 7.57-28.6c1.03-9.83 0.12-19.48-2.9-29.13-2.96-9.61-8.5-18.77-16.67-27.56zm-79.93 90.59c-9.72-10.2-19.99-17.23-30.75-21.25-10.82-3.96-21.5-4.96-31.93-2.88s-19.98 7.21-28.65 15.27l-0.7 0.66c-8.5 8.12-14.36 17.29-17.57 27.62-3.27 10.39-3.42 21.14-0.61 32.22 2.8 11.08 8.92 21.8 18.53 32.11 9.94 10.43 20.55 17.59 31.71 21.56 11.16 3.86 22.07 4.75 32.9 2.52 10.73-2.25 20.39-7.38 29.12-15.49l0.7-0.66c6.04-5.69 10.61-12.1 13.79-19.41 3.24-7.26 4.83-14.96 4.85-23.16 0.07-8.14-1.68-16.34-5.14-24.7-3.5-8.42-8.9-16.5-16.25-24.41"/><path d="m4613.6 1692.4c9.84 14.73 16.65 29.56 20.37 44.43 3.69 14.99 4.54 29.48 2.44 43.52-2.13 13.97-6.97 26.95-14.59 38.98-7.66 11.97-18.04 22.37-30.94 31.17l-0.8 0.54c-12.93 8.62-25.59 13.76-37.99 15.52-12.37 1.83-24.32 0.96-35.75-2.59-11.48-3.63-22.25-9.08-32.41-16.51-10.2-7.49-19.49-16.08-28.01-25.98l-27.42 132.14-36.85 24.85-125.09-185.44 42.86-28.91 81.86 121.36 29.45-130 36.23-12.8 15.4 22.84c8.87 13.14 18.31 23.39 28.14 30.75 9.82 7.36 19.8 11.5 29.72 12.39 9.96 0.95 19.64-1.69 28.9-7.84l0.8-0.54c8.57-5.87 14.6-13.05 18.11-21.53 3.5-8.49 4.5-17.51 3.06-27.14-1.32-9.59-5.21-19.11-11.4-28.43-6.98-10.34-14.89-18.9-23.5-25.62-8.73-6.74-18.27-11.97-28.81-15.64-10.47-3.71-21.87-6.22-34.26-7.58l8.82-56.06c14.99 1.35 29.7 4.73 44.12 10.26 14.43 5.41 28.18 13.42 41.35 23.87 13.05 10.43 25.14 23.74 36.19 39.99"/><path d="m1150.7 2861.4 15.02 125.92c2.46 21.32 2 41.43-1.36 60.43-3.36 18.99-9.27 36.49-17.73 52.43-8.45 15.93-19.01 29.99-31.74 42.19-12.75 12.12-27.31 22.01-43.6 29.67-16.3 7.57-33.98 12.53-53.03 14.88l-0.97 0.12c-23.883 2.77-46.523 0.98-67.895-5.2-21.367-6.18-40.601-16.36-57.617-30.48-17.097-14.11-31.172-31.59-42.218-52.46-11.063-20.94-18.215-44.72-21.555-71.31l-15.016-125.92zm-268.66 159.74c2.199 17.77 7.012 33.5 14.352 47.22 7.429 13.72 16.855 25.07 28.453 34.12 11.523 9.06 24.605 15.5 39.164 19.31 14.574 3.89 30.176 4.81 46.831 2.89l0.96-0.11c16.56-2.05 31.51-6.61 44.68-13.81 13.18-7.11 24.3-16.43 33.2-27.93 8.99-11.51 15.4-24.75 19.23-39.81 3.91-15.06 4.81-31.48 2.77-49.26l-7.94-66.58-229.64 27.39 7.937 66.57"/><path d="m1248.5 3356.9c6.73 21.22 9.82 41.4 9.16 60.47-0.69 18.99-5.15 36.54-13.39 52.58-8.26 16.04-20.42 30.18-36.58 42.44-16.06 12.32-36.18 22.27-60.39 30.03l-183.86 58.33-18.07-56.97 186.64-59.2c19.89-6.4 35.43-14.98 46.73-25.7 11.19-10.77 18.27-23.29 21.06-37.52 2.84-14.32 1.56-29.89-3.8-46.79-5.41-17.05-13.59-30.52-24.43-40.59-10.89-9.96-24.2-16.03-39.95-18.25-15.73-2.23-33.7-0.18-53.79 6.1l-184.32 58.47-18.067-56.96 186.64-59.2c23.56-7.4 45.2-10.69 65.06-9.94 19.79 0.77 37.62 5.31 53.41 13.55 15.78 8.25 29.32 19.85 40.72 34.92 11.49 15.05 20.52 33.08 27.23 54.23"/><path d="m1318.5 3557.2 114.19 209.45-47.77 26.05-85.6-156.99-250.82 136.76-28.61-52.47 298.61-162.8"/><path d="m1487.1 3840.2 33.31 39.28-132.33 221.8 240.43-94.33 33.63 39.64-184.88 311.59-40.53-47.8 139.83-224.98-247.1 100-32.69-38.54 139.01-227.46-244.79 101.21-41.8-49.28 337.91-131.13"/><path d="m1788.2 4156.4 46.7 37.28-212.18 265.79-46.71-37.28 212.19-265.79"/><path d="m2034.8 4320.3c18.12 10.73 33.09 22.33 44.69 34.86 11.66 12.47 20.92 25.98 27.79 40.34 6.91 14.47 12.26 30 16.04 46.59l-52.77 14.1c-3.73-12.7-8.06-24.35-13.16-34.85-5.06-10.58-11.53-20.19-19.34-28.81s-17.66-16.47-29.61-23.47c-14.14-8.21-28.66-13.06-43.62-14.61-14.85-1.58-29.5-0.13-43.73 4.29-14.17 4.46-27.31 11.49-39.5 21.24-12.08 9.71-22.37 21.8-30.92 36.21l-0.49 0.84c-8.42 14.5-13.88 29.42-16.43 44.63-2.51 15.33-2.24 30.23 0.96 44.78 3.09 14.58 8.98 27.9 17.67 40.13 8.62 12.2 19.87 22.46 33.87 30.77 11.1 6.51 22.35 11.04 33.71 13.57 11.27 2.58 22.71 3.56 34.28 3.03 11.65-0.49 23.48-2.09 35.54-4.88l10.73 57.56c-14.57 3.56-29.31 5.62-44.18 6.01-14.9 0.45-30.42-1.43-46.44-5.66-16.08-4.27-33.08-11.61-51-22.04-17.77-10.52-32.88-22.86-45.32-37.01-12.38-14.11-22.13-29.5-29.06-46.15-6.99-16.59-11.24-33.82-12.69-51.67-1.49-17.78-0.19-35.69 3.96-53.64 4.1-17.86 11.06-35.18 20.83-51.98l0.49-0.84c9.99-16.86 21.82-31.42 35.53-43.75 13.67-12.26 28.63-22.07 44.83-29.37 16.32-7.33 33.28-11.93 50.95-13.86 17.73-1.9 35.55-0.92 53.59 2.9 18.03 3.83 35.57 10.73 52.8 20.74"/><path d="m2196.6 4410.7 57.06 19.64-47.11 136.82 154.9 53.34 47.12-136.82 57.04 19.64-111.79 324.66-57.05-19.64 46.47-134.97-154.9-53.34-46.47 134.97-57.05-19.64 111.78-324.66"/><path d="m2670.8 4543.7 59.72 2.09-5 143.24 162.18 5.66 5-143.24 59.73 2.08-11.87 339.9-59.72-2.08 4.93-141.3-162.18-5.66-4.93 141.29-59.73-2.08 11.87-339.9"/><path d="m2996 4554.6 60.37-10.1 48.06 75.2 158.61-26.54 20.48-86.68 62.29-10.42-91.06 362.53-54.63 9.14zm138.74 113.73 79.95 124.55 35.53-143.88z"/><path d="m3387.5 4485 54.31-22.49 92.97 224.43 37.32-187.95 1.79-0.75 160.56 107.05-93.34-225.34 55.21-22.87 130.16 314.22-58.81 24.35-157.15-108.97-34.07 188.18-58.8 24.35-130.15-314.21"/><path d="m3757.2 4316.4 198.24-132.72 30.28 45.22-148.59 99.47 158.93 237.4-49.66 33.24-189.2-282.61"/><path d="m3991.4 4151.5 183.75-176.21 37 38.57-140.63 134.85 63.22 65.93 123.1-118.03 36.99 38.57-123.09 118.03 61.2 63.83 138.87-133.17 36.99 38.57-182 174.54-235.4-245.48"/><path d="m4262.3 3864.5 35.42-48.74 230.34 167.35 63.39-87.26 44.82 32.56-162.21 223.26-44.81-32.56 63.39-87.26-230.34-167.35"/><path d="m4449.8 3558.8 22-55.56 128.74 50.97 63.14-159.46 50.59 20.03-63.13 159.46 86.28 34.17 71.19-179.8 50.59 20.04-93.18 235.35-316.22-125.2"/><path d="m4597.3 2980.9c2.21-20.95 6.52-39.39 13.1-55.16 6.48-15.78 14.91-29.82 25.1-42.05 10.29-12.31 22.18-23.64 35.69-33.99l34.78 42.12c-10 8.67-18.78 17.46-26.21 26.48-7.5 9-13.55 18.89-18.15 29.57-4.57 10.69-7.61 22.91-9.01 36.69-1.57 16.28 0.06 31.51 4.88 45.75 4.75 14.15 12.17 26.87 22.1 37.98 9.96 11.02 21.82 20.04 35.75 27.07 13.87 6.94 29.14 11.26 45.81 13.03l0.97 0.1c16.68 1.62 32.52 0.38 47.41-3.64 14.98-4.1 28.42-10.55 40.32-19.51 11.97-8.88 21.62-19.78 29.13-32.78 7.5-12.91 12.14-27.41 13.87-43.6 1.3-12.81 0.74-24.91-1.69-36.31-2.34-11.31-6.22-22.12-11.52-32.42-5.29-10.39-11.67-20.48-19.22-30.28l47.86-33.72c9.31 11.77 17.32 24.31 23.85 37.67 6.62 13.37 11.38 28.26 14.2 44.58 2.8 16.4 3.2 34.92 1.19 55.55-2.17 20.53-7.1 39.4-14.79 56.6-7.68 17.13-17.61 32.4-29.86 45.65-12.18 13.25-26.07 24.29-41.7 33.04-15.54 8.76-32.37 15.03-50.41 18.73-17.96 3.71-36.6 4.58-55.95 2.7l-0.96-0.1c-19.49-2.06-37.65-6.75-54.57-14.09-16.84-7.32-31.98-16.84-45.37-28.53-13.45-11.79-24.7-25.31-33.81-40.56-9.11-15.33-15.64-31.94-19.67-49.93s-5.05-36.82-3.12-56.64"/><g fill-rule="evenodd"><path d="m1034.6 2443.2c35.57 0 64.41-28.84 64.41-64.41 0-35.56-28.84-64.4-64.41-64.4-35.56 0-64.407 28.84-64.407 64.4 0 35.57 28.847 64.41 64.407 64.41"/><path d="m4729 2443.2c35.57 0 64.41-28.84 64.41-64.41 0-35.56-28.84-64.4-64.41-64.4s-64.41 28.84-64.41 64.4c0 35.57 28.84 64.41 64.41 64.41"/><path d="m4710.4 3337.4c30.94 0 56.03-25.09 56.03-56.04 0-30.94-25.09-56.03-56.03-56.03-30.95 0-56.04 25.09-56.04 56.03 0 30.95 25.09 56.04 56.04 56.04"/></g></g></g></g></svg>
